<svg width="130" height="130" viewBox="0 0 130 130" fill="none" xmlns="http://www.w3.org/2000/svg">
<circle cx="65" cy="65" r="65" fill="#870000"/>
<path d="M59.5001 83.3334C57.4834 83.3334 55.7576 82.616 54.3228 81.1811C52.8879 79.7462 52.1692 78.0192 52.1667 76.0001V54.0001C52.1667 51.9834 52.8854 50.2576 54.3228 48.8227C55.7601 47.3879 57.4859 46.6692 59.5001 46.6667H70.5001C72.5168 46.6667 74.2438 47.3854 75.6811 48.8227C77.1184 50.2601 77.8359 51.9859 77.8334 54.0001V76.0001C77.8334 78.0167 77.116 79.7437 75.6811 81.1811C74.2462 82.6184 72.5192 83.3359 70.5001 83.3334H59.5001ZM24.6667 83.3334V76.0001H39.3334V68.6667H32.0001C29.9834 68.6667 28.2576 67.9493 26.8227 66.5144C25.3879 65.0795 24.6692 63.3525 24.6667 61.3334V54.0001C24.6667 51.9834 25.3854 50.2576 26.8227 48.8227C28.2601 47.3879 29.9859 46.6692 32.0001 46.6667H46.6667V54.0001H32.0001V61.3334H39.3334C41.3501 61.3334 43.0771 62.0521 44.5144 63.4894C45.9517 64.9267 46.6692 66.6525 46.6667 68.6667V76.0001C46.6667 78.0167 45.9493 79.7437 44.5144 81.1811C43.0795 82.6184 41.3525 83.3359 39.3334 83.3334H24.6667ZM83.3334 83.3334V76.0001H98.0001V68.6667H90.6668C88.6501 68.6667 86.9243 67.9493 85.4894 66.5144C84.0545 65.0795 83.3359 63.3525 83.3334 61.3334V54.0001C83.3334 51.9834 84.0521 50.2576 85.4894 48.8227C86.9268 47.3879 88.6525 46.6692 90.6668 46.6667H105.333V54.0001H90.6668V61.3334H98.0001C100.017 61.3334 101.744 62.0521 103.181 63.4894C104.618 64.9267 105.336 66.6525 105.333 68.6667V76.0001C105.333 78.0167 104.616 79.7437 103.181 81.1811C101.746 82.6184 100.019 83.3359 98.0001 83.3334H83.3334ZM59.5001 76.0001H70.5001V54.0001H59.5001V76.0001Z" fill="white"/>
</svg>

